<svg xmlns="http://www.w3.org/2000/svg" width="135" height="40" viewBox="0 0 135 40">
  <path fill="#A6A6A6" d="M130.197 40H4.73C2.12 40 0 37.872 0 35.267V4.727C0 2.12 2.122 0 4.73 0h125.467C132.803 0 135 2.12 135 4.726v30.54c0 2.606-2.197 4.734-4.803 4.734z"/>
  <path d="M134.032 35.268c0 2.116-1.714 3.83-3.834 3.83H4.728c-2.118 0-3.838-1.714-3.838-3.83V4.725C.89 2.61 2.61.89 4.73.89h125.467c2.12 0 3.834 1.72 3.834 3.835l.01 30.543z"/>
  <path d="M30.128 19.784c-.03-3.223 2.64-4.79 2.76-4.864-1.51-2.203-3.852-2.504-4.675-2.528-1.967-.207-3.875 1.177-4.877 1.177-1.022 0-2.565-1.16-4.228-1.13-2.14.03-4.142 1.27-5.24 3.19-2.266 3.92-.576 9.69 1.595 12.86 1.086 1.55 2.355 3.28 4.016 3.22 1.62-.07 2.23-1.04 4.19-1.04 1.94 0 2.51 1.03 4.2.99 1.74-.03 2.84-1.56 3.89-3.13 1.25-1.78 1.76-3.53 1.78-3.62-.04-.01-3.39-1.29-3.42-5.15zm-3.2-9.478c.874-1.093 1.472-2.58 1.306-4.09-1.265.057-2.847.876-3.758 1.945-.806.95-1.526 2.49-1.34 3.94 1.42.11 2.88-.71 3.792-1.79zm27.078 6.724H52l-1.1-3.455h-3.82l-1.05 3.455h-1.955l3.787-11.76H50.2l3.804 11.76zm-3.438-4.903l-.995-3.07c-.104-.315-.302-1.054-.593-2.217h-.035c-.117.5-.303 1.24-.56 2.216l-.976 3.07h3.15zm13.174.558c0 1.443-.39 2.583-1.168 3.42-.7.745-1.564 1.117-2.602 1.117-1.115 0-1.918-.4-2.406-1.204h-.035v4.467h-1.88V11.34c0-.907-.02-1.837-.07-2.79h1.66l.11 1.343h.04c.63-1.012 1.58-1.52 2.86-1.52 1.01 0 1.84.397 2.51 1.188.67.8 1.01 1.84 1.01 3.13zm-1.918.07c0-.826-.188-1.506-.56-2.042-.407-.558-.954-.837-1.64-.837-.465 0-.887.154-1.266.462s-.625.712-.742 1.213c-.06.24-.086.43-.086.58v1.42c0 .62.188 1.14.566 1.57.38.43.87.64 1.475.64.71 0 1.27-.27 1.66-.82.4-.55.6-1.27.6-2.16zm11.673-.07c0 1.443-.39 2.583-1.17 3.42-.697.745-1.563 1.117-2.6 1.117-1.116 0-1.92-.4-2.407-1.204h-.035v4.467H65.4V11.34c0-.907-.023-1.837-.07-2.79h1.658l.104 1.343h.035c.628-1.012 1.582-1.52 2.86-1.52 1.002 0 1.836.397 2.506 1.188.67.8 1.004 1.84 1.004 3.13zm-1.92.07c0-.826-.186-1.506-.558-2.042-.41-.558-.96-.837-1.65-.837-.47 0-.89.154-1.27.462-.38.308-.63.712-.74 1.213-.06.24-.09.43-.09.58v1.42c0 .62.18 1.14.56 1.57.38.43.87.64 1.47.64.71 0 1.26-.27 1.66-.82s.59-1.27.59-2.16zm15.183.977c0 1-.35 1.814-1.046 2.443-.766.687-1.834 1.03-3.203 1.03-1.26 0-2.28-.245-3.04-.734l.44-1.57c.83.5 1.74.75 2.73.75.71 0 1.27-.16 1.66-.48.4-.32.6-.75.6-1.28 0-.48-.16-.88-.48-1.2-.32-.32-.87-.63-1.62-.91-2.06-.77-3.09-1.89-3.09-3.37 0-.96.36-1.76 1.08-2.37.72-.62 1.68-.93 2.88-.93 1.07 0 1.96.19 2.67.56l-.48 1.53c-.66-.36-1.41-.54-2.25-.54-.66 0-1.18.16-1.55.49-.31.29-.47.65-.47 1.07 0 .47.18.85.54 1.15.318.28.888.58 1.71.91 1.016.41 1.76.89 2.237 1.43.47.55.71 1.23.71 2.05zm6.228-3.77H90.91v4.12c0 1.047.368 1.57 1.1 1.57.34 0 .617-.03.84-.086l.052 1.43c-.373.14-.86.21-1.466.21-.745 0-1.326-.227-1.745-.68-.41-.454-.62-1.216-.62-2.286V9.962h-1.24V8.55h1.24V6.997l1.85-.558v2.11H93v1.41zm9.37 2.758c0 1.303-.373 2.373-1.117 3.21-.77.862-1.81 1.292-3.1 1.292-1.24 0-2.23-.413-2.97-1.24-.74-.825-1.1-1.866-1.1-3.123 0-1.32.38-2.4 1.15-3.23.76-.84 1.79-1.26 3.08-1.26 1.25 0 2.25.41 3 1.24.72.8 1.08 1.84 1.08 3.1zm-1.955.06c0-.78-.168-1.452-.506-2.01-.396-.678-.96-1.016-1.692-1.016-.757 0-1.332.338-1.728 1.015-.338.56-.506 1.24-.506 2.04 0 .78.17 1.45.51 2.01.41.67.98 1.01 1.71 1.01.72 0 1.29-.35 1.69-1.04.35-.57.53-1.25.53-2.03zm8.08-2.572c-.187-.035-.385-.052-.594-.052-.67 0-1.18.25-1.54.75-.32.442-.47 1-.47 1.675v4.45h-1.89l.02-5.81c0-.97-.03-1.86-.07-2.67h1.64l.07 1.63h.05c.2-.56.51-1 .94-1.34.42-.3.87-.45 1.36-.45.17 0 .33.01.47.04v1.8zm8.427 2.182c0 .336-.023.622-.07.854h-5.652c.022.837.296 1.478.82 1.92.477.395 1.093.592 1.85.592.837 0 1.6-.133 2.285-.4l.297 1.308c-.803.35-1.75.523-2.845.523-1.314 0-2.347-.387-3.097-1.16-.75-.774-1.126-1.813-1.126-3.116 0-1.27.35-2.34 1.047-3.19.73-.9 1.72-1.36 2.96-1.36 1.22 0 2.14.46 2.77 1.36.5.72.75 1.61.75 2.67zm-1.797-.49c.012-.558-.11-1.04-.366-1.448-.326-.523-.826-.785-1.5-.785-.617 0-1.118.256-1.502.768-.313.408-.5.896-.558 1.466h3.926zM56.827 23.984h-6.22v10.89h-1.452v-10.89h-5.132V22.63h12.804v1.354zm-.28 5.99L55.49 31.03c-1.507-1.43-3.062-2.788-4.67-4.075l1.008-.957c1.628 1.275 3.2 2.6 4.72 3.976zm9.373-1.486h-4.21c-.286.506-.522.908-.71 1.205h1.205v-.875h1.304v.875h2.09v1.154h-2.09v.94l2.24-.197-.23 1.155-2.02.182v1.88h-1.3v-1.782l-3.5.363-.15-1.287c1.34-.06 2.56-.13 3.64-.21v-1.04h-.99c-.81 0-1.43.07-1.88.22l-.37-1.2c.36-.04.61-.17.76-.38.14-.21.34-.54.59-.98h-1.53v-1.16h2.13c.13-.27.25-.56.35-.85l1.233.36-.23.5H65.9v1.15zm5.857 3.416c-.177 1.298-.363 2.105-.562 2.426-.198.318-.498.48-.9.48s-.83-.205-1.286-.612c-.46-.406-.85-.87-1.18-1.386-.68.67-1.54 1.37-2.59 2.096l-1.01-.99c1.2-.737 2.19-1.528 2.97-2.376-.28-.814-.48-1.817-.6-3.012-.12-1.193-.18-1.905-.18-2.137h-7.77v-1.17H62v-.94h-2.52V23.11h2.525v-1.336h1.32v1.336H65.7v1.172h-2.375v.94h3.068l-.065-3.465h1.304c0 1.397.02 2.552.065 3.465h3.844v1.17h-3.79v.167c0 .22.04.76.12 1.62s.18 1.57.32 2.13c.56-.84 1.03-1.84 1.4-3.01l1.21.46c-.58 1.66-1.26 2.99-2.03 3.99.18.34.43.68.75 1.01s.54.5.64.5c.1 0 .19-.16.26-.47.07-.32.12-.73.16-1.25l1.22.33zm-.528-7.756l-1.04.826c-.6-.727-1.23-1.408-1.9-2.047l.97-.81c.78.762 1.43 1.438 1.96 2.03z" fill="#FFF"/>
</svg>
