<?xml version="1.0" encoding="UTF-8"?>
<svg width="40px" height="26px" viewBox="0 0 40 26" version="1.1" xmlns="http://www.w3.org/2000/svg" xmlns:xlink="http://www.w3.org/1999/xlink">
    <!-- Generator: Sketch 42 (36781) - http://www.bohemiancoding.com/sketch -->
    <title>MenuButtonStatic00</title>
    <desc>Created with Sketch.</desc>
    <defs></defs>
    <g id="Page-1" stroke="none" stroke-width="1" fill="none" fill-rule="evenodd">
        <g id="MenuButtonStatic00" transform="translate(-2.000000, -7.000000)" fill-rule="nonzero">
            <polygon id="Shape" fill-opacity="0" fill="#000000" points="0 0 42 0 42 7 2 7 2 11 42 11 42 18 2 18 2 22 42 22 42 29 2 29 2 33 42 33 42 40 0 40"></polygon>
            <polygon id="Shape" fill="#FDFCFB" points="2 7 38 7 38 11 2 11"></polygon>
            <polygon id="Shape" fill="#889597" points="38 7 42 7 42 11 38 11"></polygon>
            <polygon id="Shape" fill="#FDFCFB" points="2 18 38 18 38 22 2 22"></polygon>
            <polygon id="Shape" fill="#889597" points="38 18 42 18 42 22 38 22"></polygon>
            <polygon id="Shape" fill="#FDFCFB" points="2 29 38 29 38 33 2 33"></polygon>
            <polygon id="Shape" fill="#889597" points="38 29 42 29 42 33 38 33"></polygon>
        </g>
    </g>
</svg>